<svg width="138" height="86" viewBox="0 0 138 86" fill="none" xmlns="http://www.w3.org/2000/svg">
<path d="M31.8574 41.9746V34.0996H34.9616V41.9746H31.8574Z" fill="#ED1C24"/>
<path d="M37.3496 41.9746V34.0996H40.4538V41.9746H37.3496Z" fill="#ED1C24"/>
<path d="M42.8438 41.9746V34.0996H45.9479V41.9746H42.8438Z" fill="#ED1C24"/>
<path d="M48.3359 41.9746V34.0996H51.4401V41.9746H48.3359Z" fill="#ED1C24"/>
<path d="M67.9648 41.9744V0.932739H71.1523L77.7982 28.3494V0.932739H80.8398V41.9744H77.5482L71.0065 15.2036V41.9744H67.9648Z" fill="white"/>
<path d="M69.5207 53.3435L73.9114 53.4112C73.9947 53.7289 74.0207 53.9893 73.9218 54.2602C73.5051 54.3279 73.1457 54.2654 72.7551 54.1664L72.2655 54.2133C71.4687 54.031 70.7343 54.1247 69.953 54.0518L68.3437 53.906C68.2134 53.7914 68.2707 53.3435 68.4166 53.307C68.8176 53.1924 69.1614 53.3383 69.5207 53.3435ZM91.0676 54.3174L92.5572 54.432C93.0676 54.4685 93.5207 54.5258 94.0416 54.4477C94.1197 54.7914 94.1509 55.281 93.8905 55.5362C93.6249 55.7914 93.0884 55.6195 92.7551 55.6039L91.6249 55.557C91.3749 55.5466 91.2603 55.4789 91.0468 55.4685L89.5259 55.3852C89.2499 55.3695 88.9322 55.4216 88.677 55.307C88.5676 55.2602 88.2082 55.3695 88.2187 55.1143L88.2551 54.1195L89.4843 54.2133L91.0676 54.3174ZM79.0572 53.5622L81.4166 53.7237L83.9062 53.8487L84.0259 54.9633C83.6197 54.8487 83.3228 54.9268 82.9634 54.8956L80.828 54.7029L79.5207 54.6143L77.9947 54.5258C77.8176 54.5154 77.4478 54.781 77.3124 54.5362C77.1666 54.2862 77.177 53.9268 77.1874 53.5674L77.9322 53.6352C78.3124 53.5727 78.6562 53.531 79.0572 53.5622ZM64.9062 53.2029C65.0937 53.2549 65.1093 53.5466 65.0312 53.6664C64.927 53.8174 64.4218 53.781 64.3489 53.6664C64.3072 53.6091 64.2447 53.432 64.3645 53.2862C64.453 53.1768 64.7499 53.1612 64.9062 53.2029Z" fill="white"/>
<path d="M118.51 53.979C118.348 54.1457 118.187 54.6248 117.885 54.6613L115.635 54.8123L114.525 54.7915L108.671 54.3905L102.051 54.0311L100.937 53.9894L96.1921 53.6665L95.1608 53.5884C94.0827 53.5103 93.0098 53.4269 91.9316 53.3488L89.9473 53.2134C88.3379 53.104 86.6816 53.0259 85.1035 52.9061L83.9004 52.8123L82.9681 52.7967C82.0827 52.7863 81.2493 52.6873 80.3587 52.6509L79.0046 52.5988L77.265 52.4946C76.6191 52.4582 76.0202 52.479 75.3848 52.4634L72.0723 52.38C71.3952 52.3644 70.7598 52.328 70.0983 52.3175L68.2493 52.2915L66.5775 52.2759C65.7546 52.2707 64.9889 52.453 64.1504 52.3071L63.7858 49.703L63.7598 48.9321L65.3535 49.0519L67.0462 49.1092L67.9681 49.1925C68.4421 49.2342 68.8171 49.2082 69.2962 49.2394L70.2025 49.2967L71.6087 49.4113L76.9056 49.7446L77.6712 49.7915C78.1296 49.8228 78.541 49.8592 79.015 49.8853L82.3171 50.0832L85.3691 50.2811L88.3691 50.4321L90.5879 50.5415C92.0098 50.6092 93.3639 50.6717 94.7702 50.7342L97.5775 50.8488C98.1973 50.8748 98.7494 50.854 99.3587 50.9269C99.7441 50.9738 100.218 50.7342 100.598 50.9842C100.755 51.0936 100.885 51.255 101.077 51.2394C101.218 51.2238 101.354 51.078 101.51 51.0155C102.01 50.8175 102.551 50.9738 103.046 50.9269C103.354 50.9009 103.583 50.9165 103.874 50.9165L107.546 50.9738L108.854 50.9113C109.359 50.8853 109.827 50.9321 110.348 50.9165L112.656 50.8592C113.312 50.8384 113.874 50.8019 114.536 50.8384C115.426 50.8853 116.416 50.703 117.416 50.7655L118.452 50.828C119.26 50.88 120.046 50.703 120.885 50.9217C120.635 51.4269 120.234 51.7707 119.869 52.1561C119.275 52.7915 119.005 53.4842 118.51 53.979ZM122.77 51.9373C122.343 52.0155 121.864 51.953 121.426 52.2342C121.275 52.3644 121.114 52.1769 121.202 52.0623C122.223 51.4009 122.536 50.3384 123.588 51.1821C123.822 51.3748 124.161 51.4009 124.27 51.8175C123.697 51.7498 123.265 51.8436 122.77 51.9373Z" fill="#F9A72B"/>
<path d="M114.302 55.8386C114.407 55.7604 114.568 55.7969 114.714 55.7969L117.209 55.8021L116.563 56.7604C116.386 57.0261 116.229 57.2188 116.099 57.5156C116.073 57.5729 114.526 57.5677 113.834 57.2865L114.198 56.2865C114.157 56.1302 114.198 55.9115 114.302 55.8386ZM110.058 56.8594C109.443 57.0208 108.839 56.8438 108.188 56.7761C107.552 56.7188 106.985 56.7292 106.37 56.5365C106.401 56.1198 106.453 55.75 106.594 55.3229L110.063 55.5C109.948 56.1667 110.276 56.8021 110.058 56.8594ZM97.7971 54.8386C98.3753 54.8021 99.1982 54.8958 99.8805 54.9271L101.49 54.9896C101.943 55.0052 102.328 55.0938 102.834 55.0469C102.844 55.5781 102.651 55.9219 102.292 56.2604L99.0992 56.0417C98.4794 55.9948 97.818 56.0313 97.2346 55.8177C96.9482 55.7136 97.0159 55.0104 97.2034 54.8333C97.3961 54.6511 97.6565 54.849 97.7971 54.8386Z" fill="white"/>
<path d="M62.3372 47.8957C62.0299 47.703 61.8789 46.2134 61.6862 45.4269C61.5872 45.0519 61.5247 44.7134 61.4518 44.328L60.931 41.63C60.8268 41.0832 60.6758 40.6353 60.6081 40.0623L60.431 38.6717C60.2904 37.5259 59.9987 36.13 59.7799 34.88L59.3997 32.703C59.3216 32.2603 59.2799 31.7811 59.207 31.3384L58.957 29.8071C58.8789 29.328 58.8685 28.8853 58.7747 28.4061L58.5768 27.4009L58.0143 21.4321L57.7539 19.0571C58.0612 19.0936 58.2435 19.0988 58.5039 19.0675C58.7174 19.6353 58.6862 20.203 58.7591 20.7863L59.056 23.0936L59.1289 23.6769L59.3424 25.2446C59.4518 26.0623 59.6029 26.8384 59.6966 27.6561L59.8737 29.2394L60.0872 30.7238C60.1758 31.3384 60.1706 31.9582 60.3216 32.5728C60.4258 32.9842 60.4206 33.3748 60.4831 33.7967L60.8216 35.9842L60.9779 37.3123L61.3685 39.8905L61.5195 41.0623L62.1862 45.4686L62.5195 47.755C62.5352 47.8592 62.3789 47.9217 62.3372 47.8957Z" fill="#F9A72B"/>
<path d="M62.6656 41.9269C62.4572 40.604 62.0874 38.6977 62.0822 37.6092L61.8895 36.8644L61.8218 36.1196L61.2958 32.1196L61.1708 31.0727L60.7489 28.0467C60.6916 27.6456 60.6551 27.3227 60.6031 26.9425L60.2749 24.3904L60.0093 22.4321L59.6135 19.6509C59.5978 19.5311 59.6291 19.3904 59.6708 19.3279C59.7072 19.2706 59.8478 19.229 59.9676 19.2394L60.9781 19.3331C61.5249 19.38 62.0145 19.4113 62.551 19.4842L63.4103 19.5988L64.9885 19.7967L68.6864 20.1821C69.3999 20.2602 70.0562 20.3384 70.7489 20.4842C70.9572 20.5259 71.176 20.4425 71.4364 20.5311C71.5978 20.5884 71.9468 20.7602 72.1239 20.7602C73.077 20.7602 73.9468 21.0259 74.8791 21.1352C76.0666 21.2811 77.1656 21.5311 78.0197 22.4686L78.8583 23.3852C79.3322 23.9061 79.4572 24.6977 79.577 25.3956L80.077 28.2238L80.2176 29.4113C80.2541 29.7394 80.3062 29.9738 80.3531 30.2811L80.7228 32.8175C81.0926 34.6613 81.1916 36.4998 81.4103 38.3644C81.5041 39.1509 81.4937 39.88 81.5666 40.6613L81.6656 41.7654L81.8635 43.88L82.0249 46.13C82.1864 47.0831 82.5041 47.979 82.4937 49.0363C81.4728 49.1196 80.452 48.8956 79.4312 48.8644L77.8322 48.8123L76.1656 48.6717C75.5249 48.6196 74.9624 48.5415 74.327 48.5206L72.2541 48.4529L69.7749 48.3071L69.0353 48.2342L67.3322 48.1509L63.9103 47.9425C63.7228 47.9321 63.3999 47.8436 63.4416 47.5831C63.5406 46.9477 63.2645 46.4009 63.2072 45.8019C63.1447 45.1925 63.0978 44.6404 62.9989 44.0311L62.6656 41.9269Z" fill="#7B7979"/>
<path d="M63.3328 53.4897C63.2911 53.6251 63.2182 53.6147 63.088 53.6147L62.4317 53.6199C62.2651 53.6251 62.2546 53.448 62.2755 53.3803C62.2963 53.3074 62.364 53.2709 62.4786 53.2605L63.1296 53.2241C63.3067 53.2137 63.364 53.3907 63.3328 53.4897Z" fill="white"/>
<path d="M97.8587 49.8177L95.1712 49.7344L93.015 49.625L90.5098 49.5885L88.6556 49.4375L87.0254 49.3438C85.8743 49.2813 84.7493 49.3438 83.5931 49.099L83.4681 47.7708C83.4108 47.2031 83.041 46.6823 83.015 46.0833L82.9733 45.0573C82.9577 44.7708 82.9837 44.5885 82.8587 44.2865L82.89 43.4167C82.6816 42.7865 82.6868 42.1823 82.6452 41.5208L82.4733 38.9167L82.0358 34.6406L81.6296 32.0104C81.5514 31.5 81.4264 31.0156 81.3952 30.4896C81.3431 29.5573 81.1139 28.6667 81.015 27.7396C80.9525 27.1563 80.8587 26.625 80.7233 26.0469L80.4108 24.6302C80.1868 23.6406 79.8587 22.8594 79.1191 22.0469L81.4108 22.6042C81.8014 22.5937 82.1868 22.8021 82.5618 22.8698C83.4889 23.0365 84.3118 23.2813 85.1712 23.6354C85.4577 23.75 85.8483 23.6927 86.166 23.8542C86.4629 24.0052 86.8483 23.9948 87.1504 24.099L88.765 24.651L91.1556 25.4115L91.8014 25.6875C92.0618 25.8021 92.3535 25.8698 92.6035 25.9896L94.5775 26.9167C94.8066 27.0208 94.9837 27.2188 95.1816 27.3333C95.5514 27.5417 95.7754 27.7656 96.0462 28.0885L96.5514 28.6823C97.1087 29.3438 97.3223 30.099 97.5306 30.9271C97.6504 31.401 97.8535 31.8438 97.9577 32.349L98.4837 34.9219C98.5514 35.2604 98.5775 35.5781 98.6191 35.9427L98.8327 37.7917L99.0202 40.026C99.041 40.3125 99.0358 40.526 99.0671 40.7917L99.4941 44.1146L100.432 48.5833C100.52 49.0052 100.65 49.4063 100.468 49.8802L97.8587 49.8177Z" fill="#7B7979"/>
<path d="M40.7131 23.6144L40.6037 26.1561L40.51 28.3071L40.4266 30.0623L40.4162 31.4894L40.3954 32.7655L40.3121 33.9946L40.3069 34.9269L40.1506 38.5363L40.1141 39.8488L40.0725 42.0832L40.1037 44.5675L40.0881 46.7603C39.9475 46.9009 39.7027 46.729 39.6037 46.7238L37.6246 46.6821L36.2704 46.6457L34.1923 46.5467L33.135 46.5363L30.9162 46.505L27.9319 46.5259L26.161 46.6613L25.0621 46.63C24.9839 46.1405 25.1402 45.828 25.2548 45.4738C25.5621 44.5207 25.9996 43.6665 26.4891 42.8123L27.411 41.1978L27.9006 40.2915L29.4579 37.8592L30.5569 36.0675C30.7704 35.7134 30.9735 35.4373 31.1766 35.0988L32.0933 33.5988L33.4631 31.3332L34.1246 30.2134L34.6766 29.1978C34.9527 28.9009 35.0412 28.5936 35.2287 28.2498L36.0777 26.7082L36.6454 25.5988L37.26 24.255L37.635 23.3019L38.4735 21.3488L38.9527 20.6092L41.0985 18.4009L40.9006 21.0259L40.7131 23.6144Z" fill="#F9A72B"/>
<path d="M51.4049 18.4947L52.5039 18.5884C52.9414 18.6301 53.306 18.6249 53.7279 18.6665L55.2018 18.8072L56.7018 18.9738L56.9987 21.3332L57.1237 23.0884L57.2487 24.1405L57.3529 25.5676C57.5091 26.2134 57.5872 26.8384 57.6654 27.4895L57.7852 28.4947L58.1654 31.4322L58.6654 34.578L58.9154 35.8124L59.5091 39.229L59.6966 40.1561C59.7904 40.604 59.7591 40.979 59.8424 41.4113L60.457 44.604L60.7227 45.9478L60.9102 46.8124C60.9674 47.0728 61.1914 47.4113 60.9987 47.6509C60.7799 47.9165 60.3945 47.7238 60.1654 47.7134L58.832 47.6509L56.9779 47.5572L51.8893 47.3124L49.5924 47.2082L47.7487 47.1092L42.9883 46.9009L41.1497 46.8332L41.0977 43.3801L41.1549 39.7811L41.2227 38.3592L41.332 35.104L41.3268 33.4947L41.4466 31.4165L41.6133 26.4634L41.681 24.8697L41.7799 23.2915L41.8945 21.4426C41.9154 21.1249 41.8164 20.8592 41.8737 20.4999L42.0872 19.1197C42.1289 18.8592 41.957 18.5988 42.181 18.3124L45.1289 18.1874C45.6029 18.1665 45.9779 18.203 46.4779 18.2238L47.957 18.302L49.5143 18.3645L51.4049 18.4947Z" fill="#7B7979"/>
<path d="M125.785 63.0156C125.467 63.6458 125.171 64.3489 124.624 64.8333C124.322 65.0989 124.165 65.3802 123.879 65.6822L123.025 66.5833L122.134 67.5624L121.457 68.1041L120.499 68.5364C120.207 68.6666 119.978 68.6979 119.712 68.802C118.874 69.1354 118.03 69.3281 117.129 69.0052C116.629 68.8229 116.082 68.0885 115.978 67.7083L115.54 66.0885L115.374 64.3281C115.337 63.9739 115.441 63.6718 115.301 63.2864L115.572 62.5312L116.353 59.651L116.686 58.5624C116.868 57.9635 117.587 57.1927 118.02 56.4583C118.15 56.2343 118.254 55.9531 118.436 55.7708L119.702 54.526C120.415 53.8177 121.217 53.1354 122.217 53.0677L123.077 52.8229C123.447 52.8593 123.712 52.7135 124.035 52.7604L125.368 52.9687C126.009 53.0677 126.337 53.4374 126.598 53.9687C126.749 54.2656 126.868 54.4791 126.957 54.8489L127.379 56.5208L127.608 58.927L126.827 60.9635L125.785 63.0156Z" fill="#ED1C24"/>
<path d="M79.4274 16.526L76.4117 16.1563C75.7711 16.3802 75.1461 16.3698 74.5211 16.3229C74.1253 16.5208 73.9065 17.0573 73.6982 16.9115C73.6357 16.8698 73.5992 16.6667 73.6253 16.5677L73.9742 15.2083C74.068 14.849 74.1149 14.5208 74.193 14.1563L74.6096 12.2344C74.7034 11.7969 74.7555 11.4323 74.8596 11L75.3024 9.11979L75.6826 7.57292C75.7659 6.72396 76.0576 6 76.2763 5.1875C76.4169 4.67708 76.4794 4.20312 76.6774 3.69792C76.9378 3.03646 76.9482 2.25521 77.344 1.625C77.6253 1.82813 77.5419 2.17708 77.6357 2.38542C78.1982 3.64583 78.4221 5.24479 78.8076 6.32813L79.5159 8.30729L80.3544 10.9844L80.8128 12.2188C81.1774 13.1875 81.7346 15.1979 82.0471 15.6406C82.2451 15.9219 82.318 16.2969 82.3857 16.7552C81.594 16.6458 80.969 16.6823 80.2607 16.6094L79.4274 16.526ZM75.3128 4.88021L74.8857 6.69792L74.6357 7.73958C74.2815 8.73438 74.1826 9.73438 73.9846 10.75C73.8805 11.276 73.6357 11.724 73.5784 12.2969C73.5471 12.599 73.4326 12.9688 73.3649 13.2813L72.6513 16.6719C72.5107 17.3281 72.3596 18.099 72.1721 18.6198L71.6878 19.1615C71.5003 19.3698 71.2659 19.6042 70.9638 19.4792C70.5888 19.3177 70.2242 19.3698 69.8284 19.3229L64.9169 18.7188C64.4378 18.6615 64.0003 18.5417 63.5003 18.5938C63.0419 18.6406 62.6149 18.4219 62.1878 18.4063L61.1878 18.3698L59.4586 18.1823L58.5732 18.1302C57.443 17.9323 56.3544 17.9115 55.2294 17.8021C54.7451 17.7552 54.3232 17.6875 53.8128 17.6458L52.0367 17.4948L49.4534 17.3229C49.0419 17.2969 48.5367 17.3542 48.1565 17.2344C47.8544 17.1406 48.1149 16.776 48.1826 16.6302L48.7503 15.4531L49.318 14.2396L49.943 12.9063C50.0732 12.625 50.1721 12.276 50.2815 11.9844L51.0003 10.0313L51.9169 7.42188C52.2138 6.57292 52.594 5.59896 52.8024 4.76563L53.3649 2.54688L53.6669 1.58333C55.0263 1.65625 56.3388 1.50521 57.693 1.40104C58.2086 1.35938 58.6721 1.39062 59.1826 1.38021L61.6409 1.33333C62.5419 1.31771 63.3649 1.22396 64.2399 1.125L65.0263 1.13542L68.7659 1.43229C69.4794 1.48958 70.1409 1.61979 70.8649 1.66146C72.5524 1.76563 74.1096 1.75521 75.7763 1.45833C75.9117 1.4375 76.1461 1.53646 76.1826 1.625C76.2086 1.69792 76.0992 1.85938 76.094 1.95313C76.0367 2.82813 75.5055 4.04688 75.3128 4.88021Z" fill="white"/>
<path d="M115.448 68.8278C115.594 69.1195 116.068 69.2132 116.078 69.6976L114.161 69.5726L111.542 69.3591C111.094 69.3226 110.688 69.2757 110.328 69.1195C110.448 68.7445 110.719 68.5882 110.88 68.3226L111.943 66.583C112.193 66.1716 112.401 65.7653 112.641 65.3434L113.036 64.6247L113.849 63.1195C114.016 62.807 114.094 62.4372 114.448 62.2288C114.5 62.6195 114.578 63.0622 114.443 63.359C114.151 64.0101 114.594 67.1247 114.885 67.708L115.448 68.8278ZM18.5625 52.8434C17.9167 52.6611 17.1927 52.932 16.401 52.7236C16.349 52.3955 16.3281 52.1351 16.3802 51.7913L18.4375 51.9476L18.5625 52.8434ZM38.5469 53.9372C39.0625 53.932 39.4844 53.9736 39.9948 53.9788L40.9063 53.9893L42.8333 54.0257C43.2396 54.0361 43.5677 54.0153 43.974 54.0205L46.1875 54.0361C46.7552 54.0361 47.2865 54.083 47.8594 54.109L49.4427 54.1768L50.4688 54.1924H51.3385L54.8438 54.3747H56.2656L58.4479 54.4476L59.6823 54.5622L61.8177 54.6299L63.4271 54.7132L63.6094 55.484C63.599 56.1715 63.8021 56.7757 63.8854 57.4424L64.1042 59.2132L64.3021 61.0465L64.599 62.9111L64.7083 63.9632L64.9115 65.307C64.6823 65.208 64.4635 65.307 64.2083 65.2809L61.026 64.984L58.9375 64.8382L56.2656 64.6976L55.3021 64.6768L54.1979 64.6195H53.1927L50.3177 64.4945L47.7813 64.4215C47.6719 63.583 47.3438 62.9059 46.9792 62.2132L46.6615 61.609C46.276 60.8851 45.8333 60.2601 45.2604 59.6507L44.5521 58.8903C44.0833 58.3903 43.6406 57.9424 43.0938 57.557L42.0469 56.8122L41.3438 56.3382C40.9271 56.057 40.5677 55.8799 40.151 55.6559L38.8854 54.9736L37.7865 54.4893C37.3698 54.307 36.9375 54.2757 36.5104 53.958L38.5469 53.9372ZM15.9688 50.6924C15.5885 49.9424 14.9583 49.1455 14.1875 48.5778C14.8646 48.4476 15.4063 48.3955 15.9896 48.333L17.3177 48.1924L18.3333 48.109L19.7344 48.0153L22.8177 47.8538L24.3125 47.7705L26.349 47.6143L28.1198 47.5205L30.2292 47.5674L32.7448 47.5518C33.1302 47.5465 33.474 47.5674 33.8854 47.5674L34.6823 47.5622C34.9688 47.5622 35.3594 47.6507 35.6302 47.6507H36.3438L37.276 47.6715L40.8646 47.8278L45.3958 48.0465L50.6302 48.2913L53.4427 48.432L54.4271 48.4997L56.151 48.5465L58.9115 48.6924L60.7188 48.7913C61.0885 48.8122 61.5781 48.8955 61.8958 48.9893C62.0521 48.9788 62.5 48.682 62.5885 48.9476C62.9323 49.9945 63 51.1299 63.125 52.2132C62.6406 52.3278 62.3229 52.208 61.9375 52.208H55.5781L54.1927 52.2497C53.401 52.2705 52.6615 52.2653 51.8542 52.2497L50.7552 52.2236L49.4375 52.2393C48.875 52.2445 48.3438 52.2757 47.7656 52.2549L46.7396 52.2184L45.724 52.2497L42.8177 52.1976L40.0365 52.182L38.7969 52.1351L37.3385 52.0309C36.5938 52.109 35.9375 52.0726 35.1823 52.0153L34.0729 51.9268L32.8125 51.859L31.0208 51.8486C30.3385 51.8434 29.7344 51.7653 29.0417 51.7028L27.9375 51.609L26.8438 51.5622L25.3854 51.458L20.3177 51.1195L18.3906 50.9111L15.9688 50.6924Z" fill="#F9A72B"/>
<path d="M26.5836 61.2915C26.8232 60.9478 27.2242 60.8644 27.6513 60.9634C27.8544 60.8644 27.9378 60.6874 28.1044 60.5155L30.0836 60.4738C31.3492 60.4426 32.568 60.8592 33.7242 61.4217C34.8596 61.9686 35.8232 62.9165 36.469 63.9999C36.719 64.4269 36.7503 64.979 36.8961 65.4478C37.0211 65.8436 36.9117 66.354 36.9221 66.7238C36.9378 67.229 36.6357 67.4478 36.3805 67.7394C35.5524 68.7082 34.4742 69.229 33.219 69.3853C32.2242 69.5155 31.1774 69.4842 30.2294 69.1509L28.4326 68.5051L27.8388 67.9426C27.1096 67.6196 26.5159 66.953 26.1044 66.3124L25.6357 65.5884C25.3544 65.1509 25.3857 64.7603 25.3596 64.2186L25.3232 63.3228C25.2815 62.4165 25.693 61.5832 26.5836 61.2915Z" fill="#7B7979"/>
<path d="M21.9214 52.2499C21.9995 52.2499 22.1401 52.2083 22.2391 52.2708C22.4787 52.427 22.6922 52.2708 22.8953 52.2864L25.2547 52.4947C25.3485 52.5051 25.3172 52.8333 25.187 52.8229L24.8589 52.802L21.9318 52.7187C21.7234 52.7135 21.7912 52.2447 21.9214 52.2499ZM14.1922 60.4999C14.062 61.151 13.9891 61.7135 14.0307 62.3749C14.0568 62.9062 13.9578 63.4218 14.1349 63.9583C14.1662 64.0572 14.1037 64.2135 14.062 64.2656C14.0151 64.3176 13.9057 64.3854 13.7755 64.3697L12.2912 64.1926L9.85366 64.1458L8.12449 64.0572L6.14532 64.0208L5.29116 64.052C4.98907 64.0624 4.6297 64.0312 4.33282 63.8489L4.94741 61.8541L5.31199 60.6406L5.57241 60.0676L5.75991 59.2447C5.90574 58.6145 5.94741 57.9687 6.29636 57.4218C7.11928 57.4947 7.87449 57.3489 8.65574 57.2968L10.5828 57.1718L11.4422 56.9947L12.8797 56.6822L14.1141 56.1614C14.9526 56.0051 15.8797 54.8281 16.1662 53.9739C16.7495 53.6041 17.5151 53.7551 18.1245 53.8176C18.3641 53.7708 18.5464 53.6614 18.8432 53.7604C19.2026 53.8749 19.6557 53.6145 20.088 53.9531C19.1037 54.3906 18.1453 54.6666 17.3276 55.3072C16.3589 56.0624 15.5828 57.0051 15.0151 58.0885C14.7234 58.6458 14.463 59.1406 14.338 59.7551L14.1922 60.4999ZM3.29636 64.0989C3.11407 64.4374 3.03074 64.7812 3.1922 65.0468C3.58282 65.6979 4.15053 64.8176 5.76511 64.9791L6.74428 65.0729L7.97866 65.0781L9.67136 65.1301L10.338 65.1614L13.3016 65.276C13.6089 65.2864 14.1141 65.1926 14.2859 65.5364C14.4526 65.8749 14.437 66.2343 14.4474 66.6041L11.7287 66.401L5.81199 66.1041L3.17136 65.9687L1.09324 65.8281L1.05678 64.7864C1.04115 64.1979 2.34324 64.052 3.29636 64.0989ZM67.6349 65.6406L66.0307 65.4218C65.7495 64.3697 65.6089 63.3333 65.5412 62.2604L65.338 61.1614C65.3068 60.4322 65.2443 59.7395 65.0203 59.0312C65.1245 58.4374 64.937 57.9062 64.8693 57.3489L64.562 54.7343L67.5151 54.901L69.838 55.0104C70.5568 55.0468 71.2443 55.1354 71.9839 55.1718L73.8432 55.2551L75.1662 55.3958H76.911C77.2912 55.3958 77.6453 55.5624 77.9787 55.5624C78.4057 55.5624 78.7912 55.6249 79.213 55.6458L82.5203 55.8489L85.2912 56.0833L87.1089 56.2343L89.1662 56.3124L91.1818 56.4999C91.5255 56.5312 91.7391 56.4739 92.0724 56.5937L93.3485 56.6041C93.6766 56.7031 93.9266 56.6874 94.2287 56.7083L96.6401 56.8489L98.8537 57.0624C99.3433 57.1093 99.7443 57.0676 100.244 57.151C100.52 57.1979 100.869 57.2187 101.145 57.2343L103.083 57.3489C104.109 57.4114 105.104 57.5364 106.062 57.6197L108.937 57.8801C109.453 57.927 109.911 57.9999 110.437 58.052L111.364 58.1458L112.963 58.3229L115.229 58.5364C115.343 58.9166 115.067 59.1249 114.906 59.3958L113.484 61.7708L112.786 62.9531L112.036 64.427L110.744 66.6926C110.369 67.3489 109.838 67.8854 109.5 68.6041C109.406 68.802 109.098 69.0572 108.937 69.1614C108.411 69.4843 107.885 69.302 107.364 69.2135L104.703 68.7708L103.463 68.6822C102.885 68.6406 102.598 68.4531 102.182 68.0937L100.791 66.9062C100.578 66.7239 100.364 66.6145 100.13 66.4322L98.3693 65.0572C97.8068 64.6197 97.213 64.3281 96.6662 63.8645C96.5308 63.7447 96.2495 63.5937 96.0828 63.526C95.0047 63.0833 93.8693 62.1145 93.6037 61.9843L92.7287 61.5676L91.7547 60.9531L91.0255 60.5676C90.411 60.2447 89.7964 60.0051 89.187 59.6926C87.8589 59.0208 86.4995 58.5781 85.1037 58.1041L83.7235 57.6301C83.6089 57.4062 83.463 57.2968 83.1453 57.3072L82.1662 57.3489C81.8276 57.3645 81.5672 57.3281 81.2391 57.3385L79.2443 57.4062L77.9422 57.4895L76.088 57.7656C74.9005 57.9479 72.5828 58.7812 72.4943 59.2812C72.4735 59.3906 72.5047 59.5937 72.6557 59.6249C72.9682 59.7031 73.2443 59.5833 73.6141 59.4947C73.562 59.8958 73.2391 59.927 73.0724 60.1093L72.4839 60.7395L71.9839 61.3333C71.7599 61.6041 71.6505 61.8489 71.4266 62.1145C70.5151 63.1874 69.9891 64.4895 69.4474 65.7968C68.812 65.8854 68.2339 65.7239 67.6349 65.6406ZM136.052 60.802C135.682 61.0885 135.494 61.4843 135.239 61.8958C134.958 61.4635 135.093 61.1197 135.01 60.776C134.911 60.3593 134.791 60.0051 134.77 59.552L136.26 60.3385C136.333 60.4322 136.151 60.7291 136.052 60.802Z" fill="#F9A72B"/>
<path d="M127.249 65.0727L128.244 62.1248L128.692 61.2706C128.999 60.6821 129.405 60.1248 129.848 59.6352C130.14 59.3175 130.838 58.9998 131.327 58.755C131.822 58.5154 132.53 58.4425 133.041 58.6456C133.129 58.8487 133.353 59.1039 133.457 59.2706C133.968 60.0675 134.004 60.9998 134.077 61.9008C134.124 62.4685 133.978 62.8279 133.759 63.3331L133.426 64.0935L133.02 64.8383C132.551 65.7029 131.999 66.4321 131.332 67.1508L130.723 68.1196L130.384 68.7966C130.223 69.13 130.009 69.3487 129.796 69.6196C129.161 70.4321 128.015 70.5727 127.197 69.9841C126.603 68.4477 126.718 66.6508 127.249 65.0727Z" fill="#ED1C24"/>
<path d="M131.28 57.7345C130.9 57.8282 130.54 57.8699 130.264 58.1928C130.103 58.3855 129.754 58.3907 129.592 58.5626L128.54 59.672L128.603 58.2033L128.374 56.3178C128.311 55.8022 128.025 55.3751 128.004 54.823C127.999 54.6251 127.712 54.448 127.858 54.1147L129.02 54.9689C129.66 55.4428 130.207 56.0001 130.936 56.3908L131.342 56.8178C131.697 57.0053 131.983 57.1303 132.202 57.5939C131.78 57.521 131.577 57.6616 131.28 57.7345ZM123.749 70.4168C122.691 70.3855 121.723 70.2397 120.655 70.0522C120.395 70.0105 120.009 70.2918 119.827 69.8335C120.249 69.7345 120.4 69.6512 120.624 69.4637L121.874 69.0366C122.124 68.9533 122.353 68.7241 122.551 68.521L123.535 67.5574L124.973 65.922C125.488 65.4689 125.936 64.9897 126.223 64.2762C126.582 64.5939 126.165 64.8647 126.15 65.0835C126.103 65.5991 126.02 65.9637 125.889 66.4272C125.598 67.4012 125.749 69.4741 126.332 70.5001L123.749 70.4168ZM47.957 65.4845H50.2852L51.207 65.5783L54.1862 65.6616L55.2018 65.7137C55.4883 65.7293 55.7122 65.6876 56.0352 65.7033L57.7331 65.7866L59.2227 65.8647L62.0143 66.0835L62.9518 66.146L64.2852 66.323L68.0612 66.7189C68.3997 66.7553 68.7591 66.6147 69.0352 66.9376C68.8268 67.6928 68.6602 68.4532 68.6185 69.297L65.3685 69.1824C64.8529 69.1616 64.4206 69.1043 63.9206 69.0835L62.5768 69.0366C61.5716 69.0001 60.6445 68.9585 59.6602 68.797L58.0143 68.823C57.2747 68.6772 56.5872 68.896 55.8789 68.7814L55.0352 68.6408L53.6289 68.6043C52.8425 68.5835 52.0977 68.5157 51.3008 68.4689L49.8112 68.3803L48.2279 68.3283C48.0872 68.323 47.931 68.1876 47.957 68.0574C48.1497 67.1876 48.0924 66.4116 47.957 65.4845ZM108.462 70.2866L109.962 70.2293C110.973 70.3907 111.936 70.4116 112.941 70.4793L114.999 70.6199L116.764 70.8283L120.202 70.9741L121.129 71.2137C121.447 71.1928 121.645 71.271 121.947 71.297L123.301 71.4272C124.061 71.5053 124.832 71.3595 125.592 71.4949L126.796 71.7033L127.582 71.9272C126.759 72.0939 125.993 71.9897 125.15 71.948C123.957 71.8855 122.858 71.8543 121.697 71.8387L120.488 71.8178L117.962 71.7293C117.759 71.7189 117.478 71.5678 117.27 71.6616C116.915 71.8178 116.629 71.672 116.285 71.6616L113.061 71.6095L111.348 71.5887L108.478 71.5158C107.587 71.4897 106.759 71.3126 105.879 71.3439C105.613 71.3543 105.306 71.1616 105.066 71.1095C104.988 70.6147 104.337 70.4064 103.952 69.6928L106.639 70.1668L108.462 70.2866ZM15.3477 53.021C15.2591 53.9012 14.8112 54.7866 14.0039 55.1564L13.2383 55.5053L11.4466 55.9689C10.9154 56.1095 10.4466 56.2605 9.88932 56.198L9.42057 56.297C9.02474 56.1928 8.73307 56.3595 8.37891 56.3647L6.73828 56.3803C6.77995 55.8647 6.97786 55.8022 7.1862 55.5783L7.89453 53.9845L8.85807 52.8022C9.14453 52.4533 9.51432 52.2137 9.67578 51.7449C9.78516 51.6303 10.0716 51.5001 10.181 51.3387L10.8581 50.3491C11.1237 49.9585 11.3945 49.7189 11.8164 49.5001C12.1029 49.3543 12.4518 48.9585 12.8685 49.0001C14.4831 49.6564 15.5195 51.3126 15.3477 53.021Z" fill="#F9A72B"/>
<path d="M81.0979 67.2083C81.176 66.9792 81.426 66.4583 81.7489 66.5C82.1552 66.5521 82.2906 66.3281 82.6187 66.224C83.3167 66.0052 84.0927 66.0573 84.8479 66L87.0823 66.3229C87.6083 66.3958 87.9833 66.7396 88.4364 66.9479L89.7177 67.5313L90.2437 67.9375L91.6239 68.7604C92.4156 69.2292 93.1969 70.0156 93.7125 70.8385C94.0042 71.3021 94.0354 71.875 94.1708 72.4219C94.3062 72.9479 94.3583 73.5625 94.1292 74.099C93.8114 74.8385 92.9104 75.4427 92.176 75.6094L91.3531 75.8021L89.1917 75.9063L88.426 75.8542C87.801 75.8125 87.2177 75.7813 86.6552 75.6354L85.7125 75.3802C84.8114 75.0312 84.0562 74.4531 83.3635 73.8125C82.7594 73.5573 82.3323 73.1198 81.9417 72.6094L81.0614 71.4427C80.5927 70.8229 80.4989 68.9271 80.801 68.0625L81.0979 67.2083Z" fill="#7B7979"/>
<path d="M1.0625 64.7865C1.04167 64.1979 2.34375 64.0521 3.29688 64.099C3.11458 64.4375 3.03125 64.776 3.19271 65.0469C3.58333 65.6979 4.15104 64.8177 5.76563 64.9792L6.74479 65.0729L7.97917 65.0781L9.67188 65.1302L10.3385 65.1615L13.3021 65.276C13.6094 65.2917 14.1146 65.1927 14.2865 65.5365C14.4531 65.875 14.4375 66.2344 14.4479 66.6042L11.7344 66.401L5.8125 66.1042L3.17188 65.9688L1.09375 65.8281L1.0625 64.7865ZM14.3385 59.7552L14.1927 60.5C14.0625 61.151 13.9896 61.7135 14.0313 62.3802C14.0625 62.9115 13.9583 63.4271 14.1354 63.9583C14.1667 64.0573 14.1042 64.2135 14.0625 64.2656C14.0156 64.3177 13.9063 64.3854 13.776 64.3698L12.2917 64.1927L9.85417 64.1458L8.125 64.0573L6.14583 64.0208L5.29167 64.0469C4.98958 64.0573 4.63021 64.0313 4.33333 63.849L4.94792 61.8542L5.3125 60.6406L5.57292 60.0677L5.76042 59.2448C5.90625 58.6094 5.94792 57.9688 6.29688 57.4271C7.11979 57.4948 7.875 57.349 8.65625 57.3021L10.5833 57.1719L11.4427 56.9896L12.8802 56.6823L14.1146 56.1615C14.9531 56 15.8802 54.8281 16.1667 53.974C16.75 53.6042 17.5156 53.7552 18.125 53.8177C18.3646 53.7708 18.5469 53.6615 18.8438 53.7604C19.2031 53.875 19.6563 53.6146 20.0885 53.9531C19.099 54.3906 18.1458 54.6667 17.3281 55.3073C16.3594 56.0625 15.5833 57.0052 15.0156 58.0885C14.724 58.6458 14.4583 59.1458 14.3385 59.7552ZM16.3802 51.7917L18.4375 51.9479L18.5625 52.8438C17.9167 52.6615 17.1927 52.9323 16.401 52.7188C16.349 52.3958 16.3281 52.1354 16.3802 51.7917ZM20.3177 51.1198L18.3906 50.9115L15.9688 50.6927C15.5885 49.9427 14.9583 49.1458 14.1875 48.5781C14.8646 48.4479 15.4063 48.3958 15.9896 48.3333L17.3177 48.1927L18.3333 48.1094L19.7344 48.0156L22.8177 47.8542L24.3125 47.7708L26.349 47.6146L28.1198 47.5208L30.2292 47.5677L32.7448 47.5521C33.1302 47.5469 33.474 47.5677 33.8854 47.5677L34.6823 47.5625C34.9688 47.5625 35.3594 47.651 35.6302 47.651H36.3438L37.276 47.6719L40.8646 47.8281L45.3958 48.0469L50.6302 48.2917L53.4427 48.4323L54.4271 48.4948L56.151 48.5469L58.9115 48.6927L60.7188 48.7917C61.0885 48.8125 61.5781 48.8958 61.8958 48.9896C62.0521 48.9792 62.5052 48.6823 62.5885 48.9479C62.9323 49.9948 63 51.1302 63.125 52.2135C62.6406 52.3281 62.3229 52.2083 61.9375 52.2083H55.5729L54.1927 52.25C53.401 52.2708 52.6615 52.2656 51.8542 52.25L50.7552 52.224L49.4375 52.2396C48.875 52.2448 48.3438 52.276 47.7656 52.2552L46.7396 52.2188L45.724 52.25L42.8177 52.1979L40.0365 52.1823L38.7969 52.1354L37.3385 52.0313C36.5938 52.1042 35.9375 52.0729 35.1823 52.0156L34.0729 51.9271L32.8125 51.8594L31.0156 51.849C30.3385 51.849 29.7344 51.7656 29.0417 51.7031L27.9375 51.6094L26.8438 51.5573L25.3854 51.4583L20.3177 51.1198ZM21.9219 52.25C21.9948 52.25 22.1406 52.2031 22.2396 52.2708C22.4792 52.4271 22.6927 52.2708 22.8958 52.2865L25.2552 52.4948C25.349 52.5052 25.3177 52.8333 25.1875 52.8229L24.8594 52.8021L21.9323 52.7188C21.724 52.7135 21.7917 52.2448 21.9219 52.25ZM26.5833 61.2917C26.8229 60.9479 27.2292 60.8646 27.651 60.9635C27.8542 60.8646 27.9375 60.6875 28.1042 60.5156L30.0833 60.474C31.349 60.4427 32.5677 60.8594 33.724 61.4167C34.8594 61.9688 35.8229 62.9167 36.4688 64C36.7188 64.4271 36.75 64.9792 36.8958 65.4427C37.0208 65.8438 36.9115 66.3542 36.9219 66.724C36.9375 67.2292 36.6354 67.4427 36.3802 67.7448C35.5521 68.7083 34.474 69.2292 33.2188 69.3854C32.224 69.5156 31.1771 69.4844 30.2292 69.1458L28.4323 68.5052L27.8385 67.9427C27.1094 67.6146 26.5156 66.9479 26.1042 66.3125L25.6354 65.5885C25.3542 65.151 25.3854 64.7604 25.3594 64.2188L25.3177 63.3229C25.276 62.4167 25.6927 61.5833 26.5833 61.2917ZM37.7865 54.4896C37.3698 54.3073 36.9323 54.276 36.5104 53.9583L38.5469 53.9375C39.0625 53.9323 39.4844 53.974 39.9948 53.9792L40.9063 53.9896L42.8333 54.026C43.2396 54.0365 43.5677 54.0208 43.974 54.0208L46.1875 54.0365C46.7552 54.0365 47.2865 54.0833 47.8594 54.1094L49.4427 54.1771L50.4688 54.1927H51.3385L54.849 54.375H56.2656L58.4479 54.4479L59.6823 54.5573L61.8177 54.6302L63.4271 54.7135L63.6042 55.4844C63.599 56.1719 63.8021 56.776 63.8854 57.4427L64.1042 59.2135L64.3021 61.0469L64.599 62.9115L64.7083 63.9635L64.9115 65.3073C64.6823 65.2083 64.4635 65.3073 64.2083 65.2813L61.026 64.9844L58.9375 64.8385L56.2656 64.6979L55.3073 64.6771L54.1979 64.6198L53.1927 64.6146L50.3177 64.4948L47.7865 64.4219C47.6771 63.5833 47.349 62.9063 46.9792 62.2135L46.6563 61.6094C46.276 60.8854 45.8333 60.2604 45.2604 59.651L44.5521 58.8906C44.0833 58.3906 43.6406 57.9427 43.0938 57.5573L42.0469 56.8125L41.3438 56.3385C40.9271 56.0573 40.5677 55.875 40.151 55.6563L38.8802 54.974L37.7865 54.4896ZM47.9583 68.0573C48.151 67.1875 48.0938 66.4115 47.9583 65.4844H50.2865L51.2083 65.5781L54.1875 65.6615L55.2031 65.7135C55.4896 65.7292 55.7135 65.6875 56.0365 65.7031L57.7344 65.7865L59.224 65.8646L62.0156 66.0885L62.9531 66.1458L64.2865 66.3229L68.0625 66.7188C68.401 66.7552 68.7604 66.6146 69.0365 66.9375C68.8281 67.6927 68.6615 68.4531 68.6198 69.2969L65.3698 69.1823C64.8542 69.1615 64.4219 69.1042 63.9219 69.0885L62.5781 69.0365C61.5729 68.9948 60.6458 68.9583 59.6615 68.7969L58.0156 68.8229C57.276 68.6771 56.5885 68.8958 55.8802 68.7813L55.0365 68.6406L53.6302 68.6042C52.8438 68.5833 52.099 68.5156 51.3021 68.4688L49.8125 68.3802L48.2292 68.3281C48.0885 68.3229 47.9323 68.1875 47.9583 68.0573ZM69.4479 65.7969C68.8125 65.8802 68.2344 65.724 67.6354 65.6406L66.0313 65.4219C65.75 64.3698 65.6094 63.3333 65.5417 62.2604L65.3385 61.1615C65.3073 60.4323 65.2448 59.7396 65.0208 59.0313C65.125 58.4375 64.9375 57.9063 64.8698 57.349L64.5625 54.7344L67.5156 54.901L69.8385 55.0104C70.5625 55.0469 71.2448 55.1354 71.9844 55.1667L73.8438 55.2552L75.1667 55.3958H76.9115C77.2917 55.3958 77.6458 55.5625 77.9792 55.5625C78.4063 55.5625 78.7917 55.625 79.2135 55.6458L82.5208 55.849L85.2917 56.0833L87.1094 56.2344L89.1667 56.3125L91.1823 56.5C91.5208 56.5313 91.7396 56.474 92.0729 56.5938L93.349 56.6042C93.6771 56.7031 93.9271 56.6875 94.2292 56.7083L96.6406 56.849L98.8542 57.0625C99.3438 57.1094 99.7448 57.0677 100.245 57.151C100.521 57.1979 100.87 57.2188 101.146 57.2344L103.083 57.349C104.109 57.4115 105.104 57.5365 106.063 57.6198L108.938 57.8802C109.453 57.9271 109.911 58 110.438 58.0521L111.365 58.1458L112.964 58.3229L115.229 58.5365C115.344 58.9167 115.068 59.125 114.906 59.3958L113.479 61.7656L112.786 62.9479L112.036 64.4323L110.74 66.6927C110.37 67.349 109.839 67.8802 109.5 68.6042C109.406 68.8021 109.099 69.0573 108.938 69.1615C108.411 69.4844 107.885 69.3021 107.365 69.2135L104.703 68.7708L103.464 68.6823C102.885 68.6406 102.599 68.4531 102.182 68.099L100.792 66.9063C100.578 66.724 100.359 66.6146 100.13 66.4323L98.3698 65.0521C97.8073 64.6146 97.2135 64.3281 96.6667 63.8646C96.5313 63.7448 96.25 63.5938 96.0833 63.526C95.0052 63.0833 93.8698 62.1146 93.6042 61.9844L92.7292 61.5677L91.7552 60.9479L91.026 60.5677C90.4115 60.2448 89.7969 60.0052 89.1875 59.6979C87.8594 59.0208 86.5 58.5781 85.1042 58.1042L83.7292 57.6302C83.6094 57.4063 83.4583 57.2969 83.1406 57.3073L82.1667 57.349C81.8281 57.3646 81.5677 57.3281 81.2396 57.3385L79.2448 57.4063L77.9427 57.4896L76.0885 57.7656C74.901 57.9427 72.5833 58.7813 72.4948 59.2813C72.474 59.3906 72.5052 59.5938 72.6563 59.6302C72.9688 59.7031 73.2448 59.5833 73.6198 59.4948C73.5625 59.8958 73.2396 59.9271 73.0729 60.1094L72.4844 60.7396L71.9844 61.3333C71.7604 61.599 71.651 61.849 71.4271 62.1146C70.5156 63.1875 69.9896 64.4896 69.4479 65.7969ZM80.8021 68.0625L81.099 67.2083C81.1771 66.9792 81.4271 66.4583 81.75 66.5C82.1563 66.5521 82.2917 66.3281 82.6198 66.224C83.3177 66.0052 84.0938 66.0521 84.849 66L87.0833 66.3229C87.6094 66.401 87.9844 66.7396 88.4375 66.9427L89.7188 67.5313L90.2448 67.9375L91.625 68.7604C92.4167 69.2292 93.1927 70.0156 93.7135 70.8385C94.0052 71.3021 94.0365 71.875 94.1719 72.4219C94.3073 72.9479 94.3594 73.5677 94.1302 74.099C93.8125 74.8438 92.9115 75.4427 92.1771 75.6094L91.3542 75.8021L89.1927 75.9063L88.4271 75.8542C87.8021 75.8125 87.2188 75.7813 86.6563 75.6354L85.7135 75.3802C84.8125 75.0313 84.0573 74.4531 83.3646 73.8125C82.7604 73.5573 82.3333 73.1198 81.9427 72.6094L81.0625 71.4427C80.5938 70.8229 80.5 68.9271 80.8021 68.0625ZM103.953 69.6979L106.641 70.1667L108.464 70.2865L109.969 70.2292C110.974 70.3906 111.938 70.4115 112.943 70.4792L115 70.6146L116.76 70.8281L120.208 70.974L121.13 71.2135C121.453 71.1927 121.646 71.2656 121.948 71.2969L123.302 71.4271C124.063 71.5052 124.833 71.3594 125.594 71.4948L126.802 71.7031L127.583 71.9323C126.76 72.0938 125.995 71.9896 125.151 71.9479C123.958 71.8854 122.859 71.8542 121.698 71.8333L120.49 71.8177L117.964 71.7292C117.76 71.7188 117.479 71.5677 117.271 71.6615C116.917 71.8177 116.63 71.6667 116.286 71.6615L113.063 71.6094L111.349 71.5885L108.479 71.5156C107.589 71.4896 106.76 71.3125 105.875 71.3438C105.615 71.3542 105.313 71.1615 105.068 71.1094C104.99 70.6094 104.344 70.4063 103.953 69.6979ZM127.198 69.9844C126.604 68.4427 126.719 66.651 127.25 65.0729L128.245 62.125L128.693 61.2708C129 60.6823 129.406 60.125 129.849 59.6354C130.141 59.3177 130.839 58.9948 131.328 58.7604C131.823 58.5156 132.531 58.4427 133.042 58.6458C133.13 58.849 133.354 59.1042 133.458 59.2708C133.969 60.0677 134.005 61 134.078 61.901C134.125 62.4688 133.979 62.8229 133.76 63.3281L133.427 64.0938L133.021 64.8333C132.552 65.7031 131.995 66.4323 131.333 67.151L130.724 68.1146L130.385 68.7969C130.224 69.1302 130.01 69.349 129.797 69.6198C129.161 70.4323 128.016 70.5729 127.198 69.9844ZM134.771 59.5521L136.26 60.3385C136.333 60.4375 136.151 60.7292 136.052 60.8021C135.682 61.0885 135.495 61.4844 135.24 61.8958C134.958 61.4635 135.094 61.1198 135.01 60.776C134.911 60.3594 134.792 60 134.771 59.5521ZM132.203 57.5938C131.781 57.5208 131.578 57.6615 131.281 57.7344C130.901 57.8281 130.542 57.8698 130.266 58.1927C130.104 58.3854 129.755 58.3906 129.594 58.5625L128.542 59.6719L128.604 58.2031L128.375 56.3177C128.313 55.8021 128.026 55.375 128.005 54.8229C127.995 54.625 127.714 54.4479 127.859 54.1146L129.021 54.9688C129.661 55.4427 130.208 56 130.938 56.3906L131.344 56.8177C131.698 57.0052 131.984 57.1302 132.203 57.5938ZM126.339 70.4948L123.75 70.4167C122.693 70.3854 121.724 70.2396 120.656 70.0521C120.396 70.0104 120.01 70.2917 119.828 69.8333C120.25 69.7344 120.401 69.651 120.625 69.4635L121.875 69.0365C122.125 68.9531 122.354 68.7188 122.552 68.5208L123.536 67.5573L124.974 65.9219C125.49 65.4688 125.938 64.9896 126.224 64.276C126.583 64.5938 126.167 64.8646 126.151 65.0833C126.104 65.599 126.021 65.9635 125.885 66.4271C125.604 67.401 125.75 69.474 126.339 70.4948ZM114.885 67.7083L115.448 68.8281C115.594 69.1198 116.068 69.2135 116.078 69.6979L114.161 69.5729L111.542 69.3594C111.094 69.3229 110.688 69.2708 110.328 69.1198C110.448 68.7448 110.719 68.5885 110.88 68.3229L111.943 66.5833C112.193 66.1719 112.401 65.7656 112.641 65.3438L113.036 64.625L113.849 63.1198C114.016 62.8073 114.094 62.4375 114.448 62.2344C114.5 62.625 114.578 63.0625 114.443 63.3594C114.146 64.0104 114.594 67.125 114.885 67.7083ZM127.609 58.9271L126.828 60.9635L125.792 63.0156C125.469 63.6458 125.172 64.349 124.625 64.8333C124.323 65.099 124.167 65.3802 123.88 65.6823L123.026 66.5833L122.135 67.5625L121.458 68.1042L120.5 68.5365C120.208 68.6667 119.979 68.6979 119.714 68.8021C118.875 69.1354 118.031 69.3281 117.13 69C116.63 68.8229 116.083 68.0885 115.979 67.7083L115.536 66.0885L115.375 64.3281C115.339 63.974 115.443 63.6719 115.302 63.2865L115.573 62.5313L116.354 59.651L116.688 58.5625C116.87 57.9635 117.589 57.1927 118.021 56.4583C118.151 56.2344 118.255 55.9531 118.438 55.7708L119.703 54.526C120.417 53.8177 121.219 53.1354 122.214 53.0677L123.078 52.8229C123.443 52.8594 123.714 52.7135 124.036 52.7604L125.365 52.9688C126.01 53.0677 126.339 53.4375 126.599 53.9688C126.745 54.2656 126.87 54.4792 126.964 54.849L127.375 56.5208L127.609 58.9271ZM124.271 51.8177C123.698 51.75 123.266 51.8438 122.771 51.9375C122.344 52.0156 121.865 51.9531 121.427 52.2396C121.271 52.3646 121.115 52.1771 121.203 52.0573C122.229 51.401 122.536 50.3333 123.589 51.1823C123.823 51.375 124.161 51.4063 124.271 51.8177ZM114.198 56.2865C114.156 56.1302 114.198 55.9115 114.302 55.8385C114.406 55.7604 114.568 55.7969 114.714 55.7969L117.208 55.8021L116.563 56.7604C116.38 57.026 116.229 57.2188 116.099 57.5156C116.073 57.5729 114.526 57.5677 113.833 57.2865L114.198 56.2865ZM110.057 56.8594C109.443 57.0208 108.839 56.8438 108.188 56.776C107.552 56.7188 106.984 56.7292 106.37 56.5365C106.401 56.1198 106.453 55.75 106.594 55.3229L110.063 55.5C109.948 56.1667 110.276 56.8021 110.057 56.8594ZM97.2031 54.8333C97.3958 54.651 97.6563 54.849 97.7969 54.8385C98.375 54.8021 99.1979 54.8958 99.8802 54.9219L101.49 54.9844C101.943 55.0052 102.328 55.0938 102.833 55.0469C102.844 55.5833 102.651 55.9219 102.292 56.2604L99.099 56.0365C98.4792 55.9948 97.8177 56.026 97.2344 55.8177C96.9479 55.7135 97.0156 55.0104 97.2031 54.8333ZM88.2552 54.1198L89.4844 54.2135L91.0677 54.3177L92.5573 54.4323C93.0677 54.4688 93.5208 54.526 94.0417 54.4479C94.1198 54.7917 94.151 55.2813 93.8906 55.5365C93.625 55.7917 93.0885 55.6198 92.7552 55.6042L91.625 55.5573C91.3802 55.5469 91.2604 55.4792 91.0469 55.4688L89.526 55.3854C89.25 55.3698 88.9323 55.4219 88.6771 55.3073C88.5677 55.2604 88.2083 55.3698 88.2188 55.1146L88.2552 54.1198ZM77.1823 53.5677L77.9323 53.6354C78.3125 53.5729 78.6563 53.5313 79.0573 53.5573L81.4167 53.724L83.9063 53.849L84.026 54.9635C83.6198 54.849 83.3229 54.9271 82.9635 54.8958L80.8281 54.7031L79.5208 54.6146L77.9948 54.526C77.8177 54.5156 77.4479 54.776 77.3125 54.5365C77.1719 54.2865 77.1771 53.9271 77.1823 53.5677ZM68.4167 53.3073C68.8177 53.1927 69.1615 53.3333 69.5208 53.3438L73.9115 53.4115C73.9948 53.7292 74.0208 53.9896 73.9219 54.2604C73.5052 54.3281 73.1458 54.2656 72.7552 54.1667L72.2656 54.2135C71.4688 54.0313 70.7344 54.125 69.9531 54.0521L68.3438 53.9063C68.2135 53.7917 68.2708 53.349 68.4167 53.3073ZM64.3646 53.2865C64.4531 53.1771 64.75 53.1615 64.9063 53.2031C65.0938 53.2552 65.1094 53.5469 65.0313 53.6615C64.9271 53.8177 64.4219 53.7813 64.349 53.6667C64.3073 53.6094 64.2448 53.4323 64.3646 53.2865ZM120.885 50.9219C120.635 51.4271 120.234 51.7708 119.87 52.1563C119.276 52.7917 119.005 53.4844 118.51 53.9792C118.349 54.1458 118.188 54.625 117.885 54.6615L115.635 54.8125L114.526 54.7917L108.672 54.3906L102.052 54.0313L100.938 53.9896L96.1927 53.6667L95.1615 53.5885C94.0833 53.5104 93.0104 53.4271 91.9323 53.349L89.9479 53.2135C88.3385 53.1042 86.6823 53.026 85.1042 52.9063L83.901 52.8125L82.9688 52.7969C82.0833 52.7865 81.25 52.6875 80.3594 52.651L79.0052 52.599L77.2656 52.4948C76.6198 52.4583 76.0208 52.4792 75.3854 52.4635L72.0729 52.3802C71.3958 52.3646 70.7604 52.3281 70.099 52.3177L68.25 52.2917L66.5781 52.276C65.7552 52.2708 64.9844 52.4531 64.151 52.3073L63.7865 49.7031L63.7604 48.9323L65.3542 49.0521L67.0469 49.1094L67.9688 49.1927C68.4427 49.2344 68.8177 49.2083 69.2969 49.2396L70.2031 49.2969L71.6094 49.4115L76.9063 49.7448L77.6719 49.7917C78.1302 49.8229 78.5417 49.8594 79.0156 49.8854L82.3177 50.0833L85.3698 50.2813L88.3698 50.4323L90.5885 50.5417C92.0104 50.6094 93.3646 50.6719 94.7708 50.7344L97.5781 50.849C98.1979 50.875 98.75 50.8542 99.3594 50.9271C99.7448 50.974 100.219 50.7344 100.599 50.9844C100.755 51.0938 100.885 51.2552 101.078 51.2396C101.219 51.224 101.354 51.0781 101.51 51.0156C102.01 50.8177 102.552 50.974 103.047 50.9271C103.354 50.901 103.583 50.9167 103.875 50.9167L107.547 50.974L108.854 50.9115C109.359 50.8854 109.828 50.9323 110.349 50.9167L112.656 50.8594C113.313 50.8385 113.875 50.8021 114.536 50.8385C115.427 50.8854 116.417 50.7031 117.417 50.7656L118.453 50.8281C119.26 50.8802 120.047 50.7031 120.885 50.9219ZM100.469 49.8802L97.8594 49.8177L95.1719 49.7344L93.0156 49.625L90.5104 49.5885L88.6563 49.4375L87.026 49.3438C85.875 49.2813 84.75 49.3438 83.5938 49.099L83.4688 47.7708C83.4115 47.2031 83.0417 46.6823 83.0156 46.0833L82.974 45.0573C82.9583 44.7656 82.9844 44.5885 82.8594 44.2865L82.8906 43.4167C82.6823 42.7865 82.6875 42.1823 82.6458 41.5208L82.474 38.9219L82.0365 34.6406L81.6302 32.0104C81.5521 31.5 81.4271 31.0156 81.3958 30.4896C81.3438 29.5573 81.1146 28.6667 81.0156 27.7396C80.9531 27.1563 80.8542 26.625 80.7292 26.0469L80.4115 24.6302C80.1875 23.6406 79.8594 22.8594 79.1198 22.0469L81.4115 22.6042C81.8021 22.5938 82.1875 22.8021 82.5625 22.8698C83.4896 23.0417 84.3125 23.2813 85.1719 23.6354C85.4583 23.75 85.849 23.6927 86.1615 23.8542C86.4635 24.0052 86.849 23.9896 87.151 24.099L88.7656 24.651L91.1563 25.4115L91.8021 25.6875C92.0625 25.8021 92.3542 25.8698 92.6042 25.9896L94.5781 26.9167C94.8073 27.026 94.9844 27.2188 95.1823 27.3281C95.5521 27.5417 95.776 27.7656 96.0469 28.0885L96.5521 28.6875C97.1094 29.3438 97.3229 30.099 97.5313 30.9271C97.651 31.401 97.8542 31.8438 97.9583 32.349L98.4844 34.9219C98.5521 35.2604 98.5781 35.5781 98.6198 35.9375L98.8281 37.7917L99.0208 40.026C99.0417 40.3125 99.0365 40.526 99.0677 40.7917L99.4948 44.1146L100.432 48.5833C100.521 49 100.651 49.4063 100.469 49.8802ZM82.3854 16.7552C81.5938 16.6458 80.9688 16.6823 80.2604 16.6094L79.4271 16.526L76.4115 16.1563C75.7708 16.3802 75.1458 16.3698 74.5208 16.3229C74.125 16.5208 73.9063 17.0573 73.6979 16.9115C73.6354 16.8698 73.599 16.6667 73.625 16.5677L73.974 15.2083C74.0677 14.849 74.1146 14.5208 74.1927 14.1563L74.6094 12.2292C74.7031 11.7969 74.7552 11.4323 74.8594 11L75.3021 9.11979L75.6823 7.57292C75.7656 6.72396 76.0573 6 76.276 5.1875C76.4167 4.67708 76.4792 4.20312 76.6771 3.69792C76.9375 3.03646 76.9479 2.25521 77.3438 1.625C77.625 1.82813 77.5417 2.17708 77.6354 2.38542C78.1979 3.64583 78.4219 5.24479 78.8073 6.32813L79.5156 8.30729L80.3542 10.9844L80.8125 12.2188C81.1771 13.1875 81.7344 15.1979 82.0469 15.6406C82.2448 15.9219 82.3177 16.2969 82.3854 16.7552ZM76.0938 1.95313C76.0365 2.82292 75.5052 4.04688 75.3125 4.88021L74.8854 6.69792L74.6354 7.74479C74.2813 8.73438 74.1823 9.73958 73.9792 10.75C73.8802 11.2708 73.6354 11.724 73.5781 12.3021C73.5469 12.599 73.4271 12.9688 73.3646 13.2813L72.651 16.6667C72.5104 17.3281 72.3594 18.099 72.1719 18.6198L71.6875 19.1615C71.5 19.3698 71.2656 19.6042 70.9635 19.4792C70.5885 19.3177 70.224 19.3698 69.8281 19.3229L64.9167 18.7188C64.4375 18.6615 64.0052 18.5417 63.5 18.5938C63.0417 18.6406 62.6198 18.4219 62.1875 18.4063L61.1875 18.3698L59.4583 18.1823L58.5729 18.1302C57.4427 17.9271 56.3542 17.9115 55.2292 17.8021C54.7448 17.7552 54.3229 17.6927 53.8125 17.6458L52.0365 17.4948L49.4583 17.3229C49.0417 17.2969 48.5365 17.3542 48.1563 17.2344C47.8542 17.1406 48.1146 16.7708 48.1823 16.6302L48.75 15.4531L49.3177 14.2396L49.9427 12.9063C50.0729 12.625 50.1719 12.276 50.276 11.9844L51.0052 10.0313L51.9167 7.42188C52.2135 6.57292 52.5938 5.59896 52.8021 4.76042L53.3646 2.54688L53.6667 1.58333C55.026 1.65625 56.3438 1.50521 57.6927 1.40104C58.2083 1.35938 58.6771 1.39062 59.1823 1.38021L61.6406 1.33333C62.5417 1.31771 63.3646 1.22396 64.2396 1.125L65.026 1.13542L68.7656 1.43229C69.4792 1.48958 70.1406 1.61458 70.8594 1.66146C72.5521 1.76042 74.1094 1.75521 75.776 1.45833C75.9115 1.4375 76.1458 1.53646 76.1823 1.625C76.2083 1.69792 76.099 1.85938 76.0938 1.95313ZM62.5208 47.7552C62.5365 47.8594 62.3802 47.9219 62.3385 47.8906C62.0313 47.7031 61.8802 46.2135 61.6875 45.4271C61.5885 45.0521 61.526 44.7135 61.4531 44.3281L60.9323 41.6302C60.8281 41.0833 60.6771 40.6354 60.6094 40.0625L60.4323 38.6719C60.2917 37.526 60 36.1302 59.7813 34.8802L59.401 32.7031C59.3229 32.2604 59.2813 31.7813 59.2083 31.3385L58.9583 29.8073C58.8802 29.3281 58.8698 28.8854 58.776 28.4063L58.5781 27.401L58.0156 21.4323L57.7552 19.0573C58.0625 19.0938 58.2448 19.099 58.5052 19.0677C58.7188 19.6354 58.6875 20.2031 58.7604 20.7865L59.0573 23.0938L59.1302 23.6771L59.3438 25.2448C59.4531 26.0625 59.6042 26.8385 59.6979 27.6563L59.875 29.2396L60.0885 30.724C60.1771 31.3385 60.1719 31.9583 60.3229 32.5729C60.4271 32.9844 60.4219 33.375 60.4844 33.7969L60.8229 35.9844L60.9792 37.3125L61.3698 39.8906L61.5208 41.0625L62.1875 45.4688L62.5208 47.7552ZM63.3333 53.4896C63.2917 53.625 63.2188 53.6146 63.0885 53.6146L62.4323 53.6198C62.2604 53.625 62.2552 53.4479 62.276 53.3802C62.2969 53.3073 62.3646 53.2708 62.4792 53.2604L63.1302 53.224C63.3073 53.2135 63.3646 53.3906 63.3333 53.4896ZM63 44.0313L62.6667 41.9271C62.4583 40.6042 62.0885 38.6979 62.0833 37.6094L61.8906 36.8646L61.8229 36.125L61.2969 32.1198L61.1719 31.0729L60.75 28.0469C60.6927 27.6406 60.6563 27.3229 60.6042 26.9427L60.276 24.3906L60.0104 22.4323L59.6146 19.651C59.599 19.5313 59.6302 19.3854 59.6719 19.3281C59.7083 19.2708 59.849 19.2292 59.9688 19.2396L60.9792 19.3333C61.526 19.3802 62.0156 19.4115 62.5521 19.4844L63.4115 19.599L64.9896 19.7969L68.6875 20.1875C69.401 20.2604 70.0573 20.3385 70.75 20.4792C70.9635 20.526 71.1771 20.4427 71.4375 20.5313C71.599 20.5885 71.9479 20.7604 72.125 20.7604C73.0781 20.7604 73.9427 21.026 74.8802 21.1406C76.0677 21.2813 77.1719 21.5313 78.026 22.4688L78.8594 23.3854C79.3385 23.9063 79.4583 24.6979 79.5781 25.3958L80.0781 28.224L80.2135 29.4115C80.2552 29.7448 80.3073 29.974 80.3542 30.2813L80.724 32.8177C81.0938 34.6615 81.1927 36.4948 81.4167 38.3646C81.5104 39.151 81.4948 39.8802 81.5677 40.6615L81.6667 41.7656L81.8646 43.8802L82.026 46.1302C82.1927 47.0833 82.5052 47.9792 82.4948 49.0365C81.474 49.1198 80.4583 48.8906 79.4323 48.8646L77.8333 48.8125L76.1719 48.6719C75.5313 48.6198 74.9635 48.5417 74.3281 48.5208L72.2552 48.4479L69.776 48.3073L69.0365 48.2344L67.3333 48.151L63.9115 47.9427C63.7292 47.9323 63.401 47.8438 63.4427 47.5833C63.5417 46.9479 63.2656 46.401 63.2083 45.8021C63.1458 45.1927 63.0938 44.6406 63 44.0313ZM47.9583 18.3021L49.5156 18.3646L51.4063 18.4948L52.5052 18.5885C52.9427 18.6302 53.3073 18.625 53.7292 18.6667L55.2031 18.8073L56.7031 18.974L57 21.3333L57.125 23.0885L57.25 24.1406L57.3542 25.5677C57.5104 26.2135 57.5885 26.8385 57.6667 27.4896L57.7865 28.4948L58.1667 31.4323L58.6667 34.5781L58.9167 35.8125L59.5104 39.2292L59.6979 40.1563C59.7917 40.6042 59.7604 40.9792 59.8438 41.4115L60.4583 44.6042L60.724 45.9479L60.9115 46.8125C60.9688 47.0729 61.1927 47.4115 61 47.651C60.7813 47.9167 60.3958 47.724 60.1667 47.7135L58.8333 47.651L56.9792 47.5573L51.8906 47.3125L49.5938 47.2083L47.75 47.1094L42.9896 46.901L41.151 46.8333L41.099 43.3802L41.1563 39.7813L41.224 38.3594L41.3333 35.1042L41.3281 33.4948L41.4479 31.4167L41.6146 26.4635L41.6823 24.8698L41.7865 23.2917L41.8958 21.4427C41.9167 21.125 41.8177 20.8594 41.875 20.5L42.0885 19.1198C42.1302 18.8594 41.9583 18.599 42.1823 18.3125L45.1302 18.1875C45.6042 18.1667 45.9792 18.2031 46.4792 18.224L47.9583 18.3021ZM41.099 18.401L40.901 21.026L40.7135 23.6146L40.6042 26.1563L40.5104 28.3073L40.4271 30.0625L40.4167 31.4896L40.3958 32.7656L40.3125 33.9948L40.3073 34.9271L40.151 38.5365L40.1146 39.849L40.0729 42.0833L40.1042 44.5677L40.0885 46.7604C39.9479 46.901 39.7031 46.7292 39.6042 46.724L37.6302 46.6823L36.2656 46.6458L34.1927 46.5469L33.1354 46.5365L30.9167 46.5052L27.9323 46.526L26.1615 46.6615L25.0625 46.6302C24.9844 46.1406 25.1406 45.8333 25.2552 45.474C25.5625 44.5208 26 43.6667 26.4896 42.8125L27.4115 41.1979L27.901 40.2917L29.4583 37.8594L30.5521 36.0677C30.7708 35.7135 30.974 35.4375 31.1823 35.099L32.0938 33.6042L33.4635 31.3333L34.125 30.2135L34.6771 29.1979C34.9531 28.901 35.0417 28.5938 35.2292 28.25L36.0781 26.7083L36.6458 25.599L37.2604 24.2552L37.6354 23.3021L38.474 21.349L38.9531 20.6094L41.099 18.401ZM15.349 53.0208C15.2604 53.901 14.8125 54.7865 14.0052 55.1563L13.2396 55.5052L11.4479 55.9688C10.9167 56.1094 10.4479 56.2604 9.89063 56.1979L9.42188 56.3021C9.02604 56.1927 8.73438 56.3594 8.38021 56.3646L6.73958 56.3802C6.78125 55.8646 6.97917 55.8021 7.1875 55.5781L7.89583 53.9844L8.85938 52.8073C9.14583 52.4479 9.52083 52.2135 9.67708 51.7448C9.78646 51.6302 10.0729 51.5 10.1875 51.3385L10.8594 50.349C11.1302 49.9635 11.3958 49.7188 11.8177 49.5C12.1042 49.3542 12.4583 48.9583 12.8698 49C14.4792 49.6563 15.5208 51.3125 15.349 53.0208ZM0 64.8854V65.5417C0.171875 65.9375 0.40625 66.4323 0.755208 66.7292C1.13542 67.0573 1.67708 66.901 2.11979 66.9219L4.18229 67.0313L5.53125 67.1146L6.85417 67.1979L8.54167 67.2969L9.35417 67.3125L11.9844 67.4792L13.8854 67.5573C14.1875 67.5677 14.724 67.4323 14.9167 67.7552L15.901 69.375C16.4063 69.9271 16.8385 70.5625 17.4948 70.9323C17.7969 71.1094 17.9844 71.2813 18.2135 71.5156C18.6875 72.0052 19.2969 72.2656 19.8698 72.5677C20.2656 72.776 20.5833 73.0729 21.0417 73.151L21.651 73.4792L23.6823 74.1927L24.5885 74.4375L27.5573 75.1927L29.7031 75.5573L31.1198 75.6094C33.0104 75.6771 34.8594 75.6823 36.7344 75.3646L39.1615 74.9583L40.3177 74.5677C41.2604 74.2448 42.1875 73.9583 43.0208 73.4375C43.4844 73.151 44.0104 73.0313 44.4271 72.6042C44.5365 72.4896 44.8594 72.2917 45.0156 72.3646C45.2708 72.4896 45.5677 72.6563 45.75 72.8438C46.0938 73.1875 46.4792 73.2708 46.8958 73.4792L48.1302 74.1042L49.7135 74.5469C50.9271 74.8854 53.6875 74.5104 54.9688 74.0156L55.8281 73.6875L56.6719 73.151C57.5104 72.625 58.1823 72.2344 58.8229 71.375C59.1563 70.9323 59.5573 70.5573 59.7656 69.9635L61.5313 70.0052L63.3177 70.1042L64.2604 70.1302L66.0885 70.2813L68.5208 70.4063L68.8802 72.4688C68.9896 73.1042 69.2188 73.5938 69.5104 74.1563C69.7969 74.7188 69.9844 75.2813 70.375 75.8073L70.9271 76.5521L71.5885 77.2813C72.1979 77.9583 72.8333 78.5 73.5781 79.0156L74.25 79.4792L74.9115 79.9063L75.8438 80.474L76.6719 80.8542L77.401 81.2448L78.9844 81.974L80.6927 82.625L81.375 82.849C82.0729 83.0781 82.7188 83.3177 83.4323 83.4948L87.8021 84.5677L89.5104 84.8958L90.1927 84.9792L92.9271 85.4583C93.7396 85.599 94.2917 85.4948 94.6042 85.6458H94.8802C94.8802 85.6094 94.9167 85.5573 94.9792 85.5573L97.3021 85.5417C97.5885 85.5417 97.9427 85.3177 98.2135 85.375C98.6667 85.4688 99.0365 85.3073 99.4427 85.3073C99.9219 85.3073 100.292 85.25 100.776 85.1667L102.099 84.9427C102.516 84.875 102.875 84.6927 103.26 84.6042C104.51 84.3229 106.354 83.3385 107.25 82.375L107.938 81.4844C108.089 81.2969 108.188 80.9531 108.255 80.7188L108.536 79.8021C108.776 79.026 108.422 76.6406 108.01 75.6875C107.557 74.6354 107.208 73.625 106.318 72.6719C106.813 72.5521 107.036 72.9948 107.313 73.2083L108.406 74.0729L109.516 74.7708C110.641 75.4792 111.88 75.7656 113.109 76.1458C113.911 76.3958 114.708 76.6563 115.547 76.5885L117.484 76.4271C117.849 76.401 118.177 76.1927 118.589 76.2969C118.917 76.0833 119.25 75.974 119.615 76.0938C120.135 75.7708 120.76 75.6094 121.161 75.151L121.984 74.2135L122.453 73.3854L122.542 72.875C122.984 72.9896 123.396 72.9167 123.844 72.9323L125.833 73C127.401 73.0573 128.932 73.1979 130.51 73.0885L131.24 72.8906C131.443 72.8333 131.708 72.3906 131.672 72.1875C131.599 71.7292 131.109 71.5 130.693 71.3021C130.745 70.7292 131.12 70.2969 131.38 69.8333L132.714 67.4583L133.438 66.2396C133.625 65.9271 133.734 65.7031 133.958 65.4063C134.734 64.3646 135.339 63.2813 136.26 62.1302L137 61.1979C137.214 60.9271 137.406 60.6354 137.714 60.4948V60.3281L137.156 59.7865C136.844 59.6719 136.641 59.3854 136.396 59.2708C135.792 58.9896 135.307 58.6302 134.797 58.2292C134.568 58.0521 134.292 57.9635 134.052 57.7448C133.839 57.5417 133.594 57.3281 133.37 57.1406L131.693 55.7448L130.146 54.5938L129.531 54.099C129.135 53.7708 128.74 53.5521 128.339 53.2344L126.547 51.849C126.344 51.6875 126.115 51.6146 125.922 51.4635C124.979 50.7344 123.979 50.151 122.818 49.8229C122.125 49.901 121.458 49.9167 120.771 49.8229C120.167 49.9323 119.599 49.7552 119 49.7604L115.734 49.7917L114.453 49.8177C114.042 49.8281 113.734 49.8906 113.302 49.8229C113.099 49.7917 112.75 49.8698 112.479 49.8698L109.193 49.9115C108.906 49.9115 108.635 50.0104 108.354 49.8958C108.036 49.7708 107.073 50.1146 106.219 49.8646C105.542 50.0104 104.849 49.8646 104.177 49.9167C103.292 49.9844 102.411 50.0469 101.547 49.849L101.177 47.2969L100.406 43.8698L100.271 42.7708C100.109 42.1563 100.135 41.6354 100.068 41.0208L99.9115 39.5104L99.8073 38.1042L99.4167 34.8021L98.8646 31.8698C98.5677 31.3542 98.4896 30.7865 98.3385 30.2396C98.1198 29.4844 97.2292 27.7135 96.7448 27.3438L94.9271 25.9479L93.8021 25.375L92.7188 23.5052C92.2552 22.974 91.7396 22.099 91.25 21.3906L90.8073 20.75C90.6302 20.4896 90.5677 20.3229 90.4167 20.0521L89.9583 19.2344C89.6875 18.75 89.3229 18.2969 89.125 17.7969C88.9063 17.2604 88.5521 17.25 88.0938 17.1615C86.9896 16.9479 85.9583 16.8021 84.8177 16.8542C84.4896 16.8698 84.0365 16.8438 83.7083 16.7448C83.3646 16.6458 83.2917 16.0729 83.1719 15.8021L82.651 14.6354C82.375 13.75 82.0469 12.9063 81.7604 11.9948L81.4948 11.1563L80.1615 7.1875L79.6458 5.61979L79.1719 3.84896L78.5365 1.80208L78.1042 0.734375C77.8958 0.21875 77.349 0.286459 77.0729 0H77.0313L76.7031 0.244792C76.3958 0.744792 75.375 0.552083 74.9479 0.567708C74.349 0.59375 73.7604 0.619792 73.1615 0.661458L72.1979 0.739583L70.2604 0.578125C69.1146 0.484376 67.6406 0.333333 66.4896 0.140625L65.6094 0.145833L64.0781 0.28125C63.2865 0.151042 62.6094 0.286458 61.8177 0.302083L58.7188 0.369792L56.3125 0.473958L53.651 0.557292C53.4167 0.567709 52.8594 0.46875 52.7708 0.802083L52.2083 3.01563C51.9271 4.11458 51.5885 5.14062 51.2344 6.21875L50.9531 7.06771L50.6458 8.04688L49.974 9.94271L49.5469 11.0729L48.7292 13.2448L48.3021 14.0365L47.6094 15.4688C47.2917 16.1302 46.8229 17.1771 46.4531 17.1927C45.276 17.25 44.0417 17.1042 42.9427 17.2188L41.2656 17.401C40.6042 17.4688 40.0938 17.9427 39.6563 18.4167L38.4479 19.7135C38.0938 20.099 37.7708 20.5677 37.5781 21.0469L37.0885 22.2552L36.599 23.3385L35.5469 25.7552L35.1719 26.4167L34.6719 27.2813L33.9427 28.6354L33.0469 30.151L32.6615 30.7917L31.3802 32.9427L30.0365 35.1458L29.0208 36.8021L28.5885 37.5L27.9896 38.474L26.6302 40.5938L25.2448 43.2083C24.7969 44.0469 24.4688 44.8385 24.2292 45.8021L24.0417 46.5313C23.9323 46.9688 23.3438 46.8021 23.0417 46.8229L20.0729 47.0104L19.0833 47.0677L17.4271 47.1979L16.026 47.2917L15.125 47.3906L14 47.4844C13.5521 47.5208 13.1719 47.6406 12.7292 47.4219C12.5104 47.3177 12.2552 47.5521 12.2292 47.7448C12.1719 48.1875 11.8333 48.2344 11.5521 48.4427L10.6198 49.151C10.2656 49.3177 10.151 49.5938 9.95313 49.875L9.44792 50.5885L8.25 52.0208C8.07292 52.2344 7.99479 52.5313 7.70313 52.6667C7.39063 52.8125 7.33333 53.1875 7.15625 53.3958C6.83854 53.7813 6.69271 54.1406 6.45833 54.5781L5.66667 56.0313L5.29167 56.9271L5 58.0469L4.57292 60.0417L4.07813 61.2917C3.94792 61.6198 3.96875 61.9219 3.82292 62.2813L3.57813 62.9219L2.24479 63.1094C1.89583 63.1615 1.66146 63.0677 1.34375 63.2865C1.14062 63.4219 0.796875 63.5 0.645833 63.75L0.1875 64.5052C0.109375 64.625 0.0989587 64.8177 0 64.8854Z" fill="#231F20"/>
</svg>
