<svg width="528" height="159" viewBox="0 0 528 159" fill="none" xmlns="http://www.w3.org/2000/svg">
<path fill-rule="evenodd" clip-rule="evenodd" d="M152.613 5.5903H5.5903V152.613H152.613V5.5903ZM0 0V158.204H158.204V0H0Z" fill="#39BA93"/>
<path fill-rule="evenodd" clip-rule="evenodd" d="M35.4471 44.7188C34.537 46.597 33.976 48.6759 33.8486 50.8711H42.0291C42.0718 48.7109 42.2573 46.6384 42.5653 44.7188H35.4471ZM45.399 44.7188C45.0734 46.5962 44.8708 48.6719 44.8248 50.8711H46.365C46.3294 50.9232 46.2961 50.9756 46.2653 51.0281C46.2004 51.139 45.9672 51.5386 45.9641 52.0656C45.9628 52.3079 46.0166 52.502 46.0197 52.5135C46.034 52.569 46.0482 52.6138 46.0559 52.6372C46.0721 52.6867 46.0889 52.7318 46.1001 52.7613C46.1242 52.825 46.1544 52.8997 46.1861 52.9764C46.2509 53.1336 46.3425 53.349 46.4547 53.609L46.4794 53.6662H44.8514C44.9215 55.4074 45.0901 57.0624 45.3394 58.5921H48.6541C49.0531 59.4875 49.4754 60.4328 49.9026 61.3871H45.9185C46.149 62.2868 46.4103 63.1199 46.6972 63.875C47.2716 65.3865 47.9216 66.5133 48.5723 67.2376C49.2234 67.9623 49.761 68.1675 50.1555 68.1675C50.55 68.1675 51.0876 67.9623 51.7387 67.2376C51.9073 67.0499 52.0758 66.8353 52.243 66.594C52.5277 67.2247 52.7963 67.8183 53.0411 68.3578C53.4341 69.224 53.7669 69.9534 54.0074 70.4743L54.0498 70.5659C52.7924 70.826 51.4899 70.9626 50.1555 70.9626C39.5904 70.9626 31.0256 62.3979 31.0256 51.8328C31.0256 41.2677 39.5904 32.7029 50.1555 32.7029C60.7206 32.7029 69.2853 41.2677 69.2853 51.8328C69.2853 54.7757 68.6208 57.5636 67.4335 60.0543C67.313 59.8556 67.1541 59.6675 66.9499 59.5001C66.8762 59.4397 66.8112 59.397 66.7967 59.3875L66.7954 59.3867C66.7704 59.3702 66.7485 59.3567 66.7344 59.348C66.7054 59.3303 66.6761 59.3131 66.6517 59.2989C66.6012 59.2697 66.5378 59.234 66.4666 59.1943C66.3225 59.1139 66.122 59.0037 65.8759 58.8695C65.654 58.7485 65.392 58.6062 65.0961 58.446C65.7564 56.9567 66.2004 55.3501 66.3885 53.6662H58.2567C58.243 54.0303 58.2251 54.3916 58.2033 54.7498L57.881 54.5781C55.7087 53.4203 53.5341 52.2666 51.888 51.4017C51.5233 51.21 51.1836 51.032 50.8752 50.8711H55.4861C55.4402 48.6719 55.2375 46.5962 54.912 44.7188H45.399ZM52.4695 53.6662C51.3328 53.0657 50.3388 52.5436 49.6038 52.1623L49.4287 52.0716C48.7317 51.7111 48.3074 51.4988 48.2752 51.4986C48.3421 51.499 50.0947 52.4116 52.4695 53.6662ZM47.9111 51.7091C47.8964 51.7237 47.882 51.739 47.8682 51.7548L47.9111 51.7091ZM46.0119 41.9237C46.2188 41.1589 46.4484 40.4454 46.6972 39.7906C47.2716 38.279 47.9216 37.1522 48.5723 36.428C49.2234 35.7032 49.761 35.498 50.1555 35.498C50.55 35.498 51.0876 35.7032 51.7387 36.428C52.3894 37.1522 53.0394 38.279 53.6137 39.7906C53.8626 40.4454 54.0921 41.1589 54.2991 41.9237H46.0119ZM57.7457 44.7188C58.0537 46.6384 58.2393 48.7109 58.2818 50.8711H66.4624C66.335 48.6759 65.774 46.597 64.8639 44.7188H57.7457ZM55.0211 36.235C58.2869 37.2526 61.1129 39.2676 63.1425 41.9237H57.185C56.9101 40.7988 56.5888 39.751 56.2266 38.7977C55.8723 37.8653 55.4706 37.0015 55.0211 36.235ZM45.2899 36.235C42.0241 37.2526 39.1981 39.2676 37.1685 41.9237H43.126C43.4008 40.7988 43.7221 39.751 44.0844 38.7977C44.4386 37.8653 44.8404 37.0015 45.2899 36.235ZM45.2899 67.4306C44.8403 66.6639 44.4386 65.8002 44.0844 64.8678C43.6843 63.815 43.3342 62.647 43.0415 61.3871H36.9049C38.95 64.2184 41.8802 66.3681 45.2899 67.4306ZM42.51 58.5921C42.2747 57.035 42.1192 55.3817 42.0542 53.6662H33.9225C34.1168 55.4052 34.584 57.0619 35.2804 58.5921H42.51Z" fill="#39BA93"/>
<path fill-rule="evenodd" clip-rule="evenodd" d="M47.9111 51.709C47.7935 51.8254 47.6969 51.9903 47.6963 52.0755C47.6952 52.2852 55.8168 70.3823 55.9845 70.597C56.2156 70.8928 56.7259 70.794 57.0021 70.3999C57.145 70.196 57.6539 69.3459 58.1331 68.5106L59.0043 66.992L61.5072 69.5113C62.9796 70.9932 64.1151 72.031 64.2653 72.0319C64.5992 72.0339 67.189 69.4738 67.191 69.1397C67.1918 68.9897 66.1672 67.8422 64.7022 66.3527L62.212 63.821L63.7406 62.9673C64.5813 62.4979 65.4372 61.9988 65.6428 61.8583C66.0403 61.5864 66.1442 61.0795 65.8516 60.8396C65.6471 60.672 48.4874 51.4997 48.2751 51.4985C48.1926 51.498 48.0288 51.5928 47.9111 51.709Z" fill="#39BA93"/>
<path fill-rule="evenodd" clip-rule="evenodd" d="M121.867 42.4856L44.7217 119.631L40.7688 115.679L117.913 38.5327L121.867 42.4856Z" fill="#39BA93"/>
<path d="M121.532 110.128V100.244H121.174L114.6 116.3L108.025 100.244H107.668V110.128V125.781H104.225V94.5647H109.055L114.555 108.339H114.823L120.324 94.5647H124.975V125.781H121.532V110.128Z" fill="#39BA93"/>
<path d="M273.075 99.9473L272.479 52.6632L256.345 99.5374C254.128 100.245 251.985 100.208 249.545 99.6306L232.74 52.2719L232.256 99.8169L225.102 99.7796V44.0932L237.491 44.0373L253.364 89.4024L268.566 44H280.676L280.769 99.7796L273.075 99.9287V99.9473Z" fill="#64C29B"/>
<path d="M519.761 61.4195C522.37 60.6557 524.642 60.8606 527.102 61.2332L511.247 99.6492C508.695 100.152 506.59 100.078 503.851 99.7237L487.94 61.2332C490.754 60.7674 492.878 60.8792 495.635 61.14L507.968 91.0419L519.78 61.4195H519.761Z" fill="#64C29B"/>
<path d="M354.211 93.3519C355.999 93.1842 356.316 97.2271 354.676 98.3076C350.82 100.841 346.162 101.642 341.784 100.32C338.412 99.3137 336.325 96.2396 336.307 92.7371L336.102 66.6172L330.364 66.4123C330.177 64.8846 330.177 63.7108 330.475 62.1459C339.288 61.9596 337.443 54.526 339.232 51.0235C339.697 50.1106 341.523 49.9243 343.274 50.4273L343.442 60.9908L354.304 61.0281C354.602 63.0029 354.565 64.5679 354.304 66.3936H343.461L343.964 92.0105C344.038 96.0533 350.801 95.5503 354.211 93.3333V93.3519Z" fill="#64C29B"/>
<path d="M443.378 58.8683C443.862 60.8618 444.029 63.9914 443.005 64.9416C440.788 65.7053 438.366 65.389 436.131 66.8605C439.894 73.1576 437.676 81.15 430.746 84.4103C419.642 89.6267 412.209 81.691 410.495 87.8195C409.992 89.6266 411.222 91.8066 413.83 91.8439L432.125 92.1418C437.658 92.235 441.943 95.3285 442.949 100.079C443.88 104.532 442.129 109.879 437.211 112.319C422.753 119.492 399.913 115.766 401.719 104.234C402.26 100.768 404.682 98.5323 409.06 97.34C405.651 95.1416 404.291 93.2968 404.459 90.2228C404.608 87.4657 406.415 85.0621 410.197 83.255C406.396 80.1065 404.849 76.2502 405.334 71.6671C405.781 67.4941 408.426 63.6934 412.804 61.8117C419.791 58.7936 427.579 59.5949 433.876 63.9357C436.428 60.4891 439.577 58.7193 443.378 58.8683ZM414.5 98.6437C411.295 98.6251 409.06 100.433 408.65 103.526C408.371 105.687 409.6 108.593 412.636 109.599C424.709 113.567 438.608 109.151 435.758 101.736L435.739 101.755C435.031 99.892 433 98.6808 430.634 98.6808L414.5 98.6437ZM428.79 67.922C426.908 65.3884 423.275 64.5128 419.698 65.0158C415.059 65.6865 412.786 69.2828 412.842 73.5119C412.898 77.3124 414.91 80.8707 419.866 81.4855H419.847C424.318 82.0443 428.063 80.6095 429.591 77.2189C430.876 74.3498 430.783 70.6234 428.79 67.922Z" fill="#64C29B"/>
<path d="M300.108 61.829C307.766 58.5501 316.932 59.6866 322.372 65.8906C326.378 70.455 327.29 76.2124 327.011 82.3232H296.103C296.271 89.1417 300.966 94.1527 306.778 95.0097C313.355 95.9784 318.888 92.7372 320.714 86.2167V86.1982C323.043 86.3472 324.496 86.4213 326.769 87.0361C324.999 95.811 317.658 100.934 308.846 100.99C296.587 101.083 287.905 91.8429 288.688 79.7333C289.191 71.8154 293.364 64.6981 300.108 61.829ZM315.013 67.7909C311.492 65.015 306.442 64.9401 302.605 67.1572C299.288 69.0575 296.773 73.1756 296.55 77.5351L319.279 77.4413L319.298 77.4599C319.186 73.1564 317.789 69.9893 315.013 67.7909Z" fill="#64C29B"/>
<path d="M379.417 60.0037C387.745 60.3204 393.483 65.6113 393.576 74.0135L393.819 93.1473C393.856 95.6438 398.067 95.8114 399.501 94.3582C400.34 95.681 400.34 97.6375 399.501 98.6063C397.582 100.805 394.322 101.046 391.788 100.208C389.265 99.3728 387.943 97.4846 386.478 93.5301C381.829 100.997 371.21 103.498 363.786 97.991C360.582 95.6063 359.893 91.6008 360.527 88.117C362.185 79.2118 375.338 78.224 386.292 75.9139C386.739 73.4919 386.143 70.2874 384.242 68.2381C381.858 65.6488 378.225 65.3697 374.89 66.1522C371.835 66.8603 369.394 69.3939 368.277 73.157C365.706 73.3992 363.582 73.1009 361.551 72.4861C363.582 63.5064 371.09 59.6871 379.417 60.0037ZM372.04 84.1668C368.873 84.9306 367.345 88.265 367.792 90.7801C368.314 93.6677 370.605 95.5496 374.387 95.5125V95.494C382.696 95.4381 387.279 88.3775 386.311 80.702L372.04 84.1668Z" fill="#64C29B"/>
<path d="M464.503 60.0409C475.402 59.594 484.941 67.754 485.425 79.5097V79.4911C485.928 91.396 477.712 100.469 466.347 100.953C454.983 101.437 445.667 92.5509 445.704 80.4784C445.742 69.1139 453.604 60.4881 464.503 60.0409ZM466.236 65.7978C462.063 65.6115 457.851 67.1946 455.597 71.2187C452.449 76.8263 452.449 84.0923 455.56 89.7187C457.833 93.8174 462.007 95.4569 466.254 95.2333C469.924 95.0283 473.837 93.2961 475.923 89.0673H475.942C478.531 83.8322 478.476 77.8515 476.37 72.8027C474.526 68.3501 470.409 65.9842 466.236 65.7978Z" fill="#64C29B"/>
</svg>
