<?xml version="1.0" encoding="UTF-8"?>
<svg id="Layer_2" data-name="Layer 2" xmlns="http://www.w3.org/2000/svg" viewBox="0 0 71.88 14.86">
  <defs>
    <style>
      .cls-1 {
        fill: #2b3990;
      }
    </style>
  </defs>
  <g id="Layer_1-2" data-name="Layer 1">
    <g>
      <path class="cls-1" d="M7.98,14.84C3.3,15.18-.37,11.41.03,6.81.26,4.14,1.95,1.81,4.38.69,7.27-.64,10.6,0,12.76,2.17s2.79,5.63,1.37,8.56c-1.13,2.33-3.47,3.92-6.15,4.11ZM10.61,7.12c-.3-.75-2.2-2.42-2.08-2.77.22-.65.02-1.27-.53-1.57-.57-.32-1.25-.19-1.59.26-.41.53-.32,1.21.1,1.67.32.36.97.1,1.23.41l2.07,2.51c.23.11.89-.28.79-.52ZM4.34,8.6c.52-1.01,1.4-1.69,1.95-2.57-.3-.28-.55-.53-.84-.7l-2.04,2.75c-.8-.19-1.57.38-1.62,1.09-.05.82.55,1.47,1.35,1.4.51-.04.79-.4,1.03-.66.34-.38-.03-.91.17-1.31ZM11.37,10.36c.68.24,1.45-.03,1.7-.74.2-.56-.11-1.13-.57-1.42s-.94-.25-1.44.07c-.42.27-.48.8-.51,1.31-1.6.84-3.58.93-5.24.24-.16.33-.24.58-.42.88,3.23,1.53,5.96-.53,6.48-.35Z"/>
      <path class="cls-1" d="M26.18,10.8c-.67.12-1.24.07-1.86.02l-3.02-5.29-.03,5.29c-.6.06-1.13.06-1.75,0l-.03-7.9c.7-.05,1.36-.05,2.05,0l2.77,5.04.11-5.05c.62,0,1.18-.05,1.78,0l-.02,7.89Z"/>
      <path class="cls-1" d="M35.8,8.19c.23.88,1.02,1.32,1.76,1.27.8-.05,1.43-.6,1.49-1.5l1.88-.02c-.08,1.9-1.68,3.07-3.55,3.06-1.57-.01-2.91-.71-3.4-2.29-.58-1.89-.39-4.85,1.74-5.78,1.06-.47,2.28-.48,3.35-.04,1.13.46,1.88,1.52,1.87,2.71h-1.83c-.13-.85-.7-1.38-1.44-1.45-.79-.08-1.59.34-1.84,1.16-.27.89-.29,1.91-.05,2.87Z"/>
      <path class="cls-1" d="M71.88,10.81c-.6.09-1.16.07-1.74,0-.09-1.4.11-2.74-.1-4.11-.08-.48-.68-.56-1.07-.51-.33.05-.84.29-.84.76l-.04,3.85c-.55.05-1.09.08-1.69.01l.03-7.88c.53-.09,1.07-.05,1.63-.02l.06,2.36c.93-.72,2.09-.84,3.03-.2.48.33.71.92.72,1.5v4.24Z"/>
      <path class="cls-1" d="M57.62,8.89c.61-.1,1.16-.04,1.75-.06-.14,1.4-1.3,2.08-2.61,2.15s-2.55-.55-2.96-1.94c-.23-.77-.23-1.65,0-2.42.37-1.27,1.44-1.91,2.72-1.93s2.34.63,2.72,1.87c.16.51.18,1.06.16,1.71l-3.89.04c-.11.55.18,1,.55,1.19.44.23.97.19,1.34-.14.1-.1.08-.4.23-.46ZM57.57,7.12c.06-.66-.47-1.06-1.01-1.04-.61.02-1.12.34-1.08,1.02l2.09.02Z"/>
      <path class="cls-1" d="M65.42,9.23c-.28,1.86-2.89,1.99-4.39,1.45-.82-.29-1.24-1.06-1.17-1.86.63-.01,1.14-.05,1.71.02.03.43.22.74.61.84.49.12,1.47.07,1.51-.52.02-.21-.16-.34-.39-.39l-1.81-.42c-.84-.19-1.41-.79-1.44-1.58-.03-.78.36-1.52,1.16-1.81s1.79-.33,2.64-.06,1.43.99,1.44,1.9c-.57,0-1.25.11-1.8-.04-.09-.19-.1-.48-.25-.59-.41-.32-1.52-.22-1.53.32-.02.89,4.07.34,3.7,2.77Z"/>
      <path class="cls-1" d="M34.13,2.92l-2.77,4.93-.02,2.99c-.56.04-1.16.04-1.73,0-.27-.97.21-2.12-.15-3.08-.64-1.72-1.77-3.13-2.58-4.84.73-.03,1.51-.05,2.23,0l1.42,3.2,1.5-3.19c.65-.08,1.25-.07,2.1-.01Z"/>
      <path class="cls-1" d="M46.89,5.46c-.03-.21-.04-.44-.21-.64-.09.27-.02.45-.04.64,0,.19.09.39.09.63l-.04,4.74c-.64.04-1.16.05-1.75,0V2.92s2.71,0,2.71,0l1.33,5.62,1.35-5.62h2.6s-.01,7.92-.01,7.92c-.61.05-1.15.04-1.78,0l-.03-5.53-1.4,5.5c-.53.11-1.06.09-1.64.01-.37-1.82-.9-3.5-1.17-5.36Z"/>
    </g>
  </g>
</svg>